<?xml version="1.0" standalone="no"?>
<!DOCTYPE svg PUBLIC "-//W3C//DTD SVG 20010904//EN"
 "http://www.w3.org/TR/2001/REC-SVG-20010904/DTD/svg10.dtd">
<svg version="1.0" xmlns="http://www.w3.org/2000/svg"
 width="128.000000pt" height="128.000000pt" viewBox="0 0 128.000000 128.000000"
 preserveAspectRatio="xMidYMid meet">

<g transform="translate(0.000000,128.000000) scale(0.100000,-0.100000)"
fill="#000000" stroke="none">
<path d="M282 1117 l-122 -122 2 -475 3 -475 475 0 475 0 0 595 0 595 -355 3
-355 2 -123 -123z m798 -477 l0 -560 -440 0 -440 0 0 440 0 440 99 0 c55 0
106 3 115 6 13 5 16 25 16 120 l0 114 325 0 325 0 0 -560z"/>
<path d="M588 889 c-223 -34 -327 -302 -189 -485 155 -205 472 -138 537 115
18 72 13 122 -20 196 -33 73 -69 111 -139 144 -69 33 -119 41 -189 30z m72
-219 l0 -59 63 -3 c47 -2 62 -7 62 -18 0 -11 -15 -16 -62 -18 l-62 -3 -3 -62
c-2 -47 -7 -62 -18 -62 -11 0 -16 15 -18 62 l-3 62 -62 3 c-47 2 -62 7 -62 18
0 11 15 16 63 18 l62 3 0 59 c0 53 2 60 20 60 18 0 20 -7 20 -60z"/>
</g>
</svg>
