<?xml version="1.0" standalone="no"?>
<!DOCTYPE svg PUBLIC "-//W3C//DTD SVG 20010904//EN"
 "http://www.w3.org/TR/2001/REC-SVG-20010904/DTD/svg10.dtd">
<svg version="1.0" xmlns="http://www.w3.org/2000/svg"
 width="128.000000pt" height="128.000000pt" viewBox="0 0 128.000000 128.000000"
 preserveAspectRatio="xMidYMid meet">

<g transform="translate(0.000000,128.000000) scale(0.100000,-0.100000)"
fill="#000000" stroke="none">
<path d="M65 1271 c-11 -5 -29 -19 -40 -31 -19 -21 -20 -38 -23 -532 l-3 -509
35 -35 34 -34 149 0 149 0 33 -34 c18 -19 61 -47 95 -63 52 -24 74 -28 146
-28 72 0 94 4 146 28 34 16 77 44 95 63 l33 34 149 0 149 0 34 34 34 34 0 442
0 442 -34 34 -34 34 -307 0 c-185 0 -314 4 -325 10 -10 6 -29 28 -42 51 -36
65 -51 69 -265 68 -103 0 -197 -4 -208 -8z m399 -42 c13 -7 30 -25 37 -40 6
-16 25 -41 41 -54 l30 -25 313 0 314 0 20 -26 c15 -19 21 -41 21 -74 l0 -47
-35 11 c-25 8 -35 17 -35 32 0 11 -6 29 -14 40 -14 18 -31 19 -516 19 -585 0
-530 13 -530 -122 0 -80 -1 -84 -26 -93 -14 -6 -30 -10 -35 -10 -5 0 -9 73 -9
175 0 238 -13 225 224 225 109 0 184 -4 200 -11z m666 -229 c0 -19 -7 -20
-155 -20 -179 0 -203 -7 -235 -71 -12 -22 -32 -44 -46 -49 -14 -6 -142 -10
-285 -10 l-259 0 0 85 0 85 490 0 c483 0 490 0 490 -20z m85 -85 l25 -24 0
-334 c0 -419 14 -387 -165 -387 l-124 0 21 48 c18 37 22 67 22 142 1 88 -2
100 -32 162 -131 268 -513 268 -644 0 -30 -61 -33 -74 -33 -162 0 -76 4 -104
22 -143 l22 -47 -124 0 c-176 0 -165 -21 -165 320 0 255 1 268 21 294 l20 26
307 0 c337 0 341 1 379 60 46 74 34 70 238 70 184 0 186 0 210 -25z m-595
-388 l0 -152 -109 -109 c-123 -123 -122 -123 -162 -33 -35 79 -34 192 4 269
34 69 100 130 171 157 100 39 96 44 96 -132z m137 132 c97 -37 178 -136 199
-244 l6 -35 -151 0 -151 0 0 150 c0 173 -5 166 97 129z m198 -351 c-29 -137
-141 -243 -276 -263 -63 -9 -147 10 -204 46 l-48 31 109 109 109 109 158 0
159 0 -7 -32z"/>
</g>
</svg>
