<?xml version="1.0" standalone="no"?>
<!DOCTYPE svg PUBLIC "-//W3C//DTD SVG 20010904//EN"
 "http://www.w3.org/TR/2001/REC-SVG-20010904/DTD/svg10.dtd">
<svg version="1.0" xmlns="http://www.w3.org/2000/svg"
 width="128.000000pt" height="128.000000pt" viewBox="0 0 128.000000 128.000000"
 preserveAspectRatio="xMidYMid meet">

<g transform="translate(0.000000,128.000000) scale(0.100000,-0.100000)"
fill="#000000" stroke="none">
<path d="M126 1164 c-25 -26 -26 -30 -26 -149 l0 -123 -30 -12 c-63 -26 -64
-36 -40 -383 11 -172 23 -323 26 -335 3 -13 16 -35 29 -48 l24 -24 529 0 528
0 28 29 28 29 23 328 c14 191 20 337 15 349 -5 12 -20 31 -34 43 -24 18 -26
26 -26 97 0 71 -2 79 -29 106 l-29 29 -241 0 -241 0 -14 34 c-8 19 -23 39 -34
45 -13 7 -102 11 -240 11 l-219 0 -27 -26z m449 -74 c3 -10 20 -31 36 -45 l31
-25 238 0 c268 0 250 6 250 -81 l0 -49 -475 0 -475 0 0 110 0 110 194 0 c184
0 195 -1 201 -20z m609 -289 c6 -9 -29 -532 -40 -599 l-5 -32 -499 0 c-275 0
-500 1 -501 3 -4 12 -45 624 -42 630 6 10 1081 9 1087 -2z"/>
<path d="M804 677 c-2 -7 -3 -100 -2 -207 l3 -195 38 -3 37 -3 0 210 0 211
-35 0 c-20 0 -38 -6 -41 -13z"/>
<path d="M600 405 l0 -135 40 0 40 0 0 135 0 135 -40 0 -40 0 0 -135z"/>
<path d="M400 360 l0 -91 38 3 37 3 0 85 0 85 -37 3 -38 3 0 -91z"/>
</g>
</svg>
