<?xml version="1.0" standalone="no"?>
<!DOCTYPE svg PUBLIC "-//W3C//DTD SVG 20010904//EN"
 "http://www.w3.org/TR/2001/REC-SVG-20010904/DTD/svg10.dtd">
<svg version="1.0" xmlns="http://www.w3.org/2000/svg"
 width="128.000000pt" height="128.000000pt" viewBox="0 0 128.000000 128.000000"
 preserveAspectRatio="xMidYMid meet">

<g transform="translate(0.000000,128.000000) scale(0.100000,-0.100000)"
fill="#000000" stroke="none">
<path d="M63 1264 c-64 -32 -63 -25 -63 -624 0 -603 -1 -593 65 -625 30 -14
84 -15 439 -13 l404 3 26 24 c52 49 53 122 4 171 l-30 30 -334 0 -334 0 0 404
0 405 328 3 c292 3 330 5 353 21 74 50 67 164 -12 204 -18 10 -125 13 -419 13
-338 0 -400 -3 -427 -16z m839 -38 c25 -19 39 -62 29 -89 -20 -52 -19 -52
-393 -55 l-348 -3 2 -442 3 -442 349 -3 c253 -2 353 -6 364 -14 40 -33 32
-106 -14 -127 -17 -8 -145 -11 -415 -11 l-390 0 -24 25 -25 24 0 551 0 551 25
24 24 25 398 0 c311 -1 402 -3 415 -14z"/>
<path d="M850 988 c-68 -46 -71 -130 -8 -195 l32 -33 -247 0 c-274 0 -304 -5
-331 -59 -33 -63 -10 -142 49 -167 27 -11 90 -14 281 -14 l246 0 -35 -39 c-45
-50 -54 -90 -30 -139 23 -48 76 -77 124 -68 27 5 66 37 189 161 l155 155 0 50
0 50 -156 156 c-138 138 -160 156 -195 161 -30 4 -47 -1 -74 -19z m98 -32 c15
-8 87 -75 160 -149 175 -177 175 -157 -4 -338 -75 -76 -150 -143 -165 -150
-59 -24 -123 34 -100 92 5 13 37 51 70 84 l62 60 -305 5 c-281 5 -306 6 -325
24 -32 29 -29 88 5 115 26 20 38 21 328 21 l300 0 -68 69 c-81 81 -90 116 -42
158 31 27 47 28 84 9z"/>
</g>
</svg>
