<?xml version="1.0" standalone="no"?>
<!DOCTYPE svg PUBLIC "-//W3C//DTD SVG 20010904//EN"
 "http://www.w3.org/TR/2001/REC-SVG-20010904/DTD/svg10.dtd">
<svg version="1.0" xmlns="http://www.w3.org/2000/svg"
 width="128.000000pt" height="128.000000pt" viewBox="0 0 128.000000 128.000000"
 preserveAspectRatio="xMidYMid meet">

<g transform="translate(0.000000,128.000000) scale(0.100000,-0.100000)"
fill="#000000" stroke="none">
<path d="M565 1231 c-16 -10 -150 -140 -297 -288 -184 -185 -268 -276 -268
-290 0 -19 33 -53 51 -53 4 0 21 12 38 26 l31 26 0 -200 c0 -279 14 -335 98
-393 33 -23 44 -24 176 -24 140 0 140 0 153 25 9 18 13 83 13 223 l0 197 85 0
85 0 0 -208 c0 -155 3 -213 13 -226 11 -16 28 -17 148 -14 124 3 139 5 171 27
50 35 80 84 85 139 5 63 -6 77 -58 73 -17 -1 -39 -41 -39 -71 0 -10 -14 -30
-31 -44 -27 -23 -39 -26 -110 -26 l-79 0 0 208 c0 151 -3 213 -13 225 -11 16
-31 17 -177 15 -164 -3 -164 -3 -177 -28 -9 -18 -13 -83 -13 -222 l0 -198 -80
0 c-73 0 -82 2 -110 28 l-30 27 -1 290 0 289 194 193 c146 146 199 193 218
193 18 0 71 -47 217 -193 l192 -192 0 -140 c0 -161 9 -190 55 -190 41 0 55 32
55 133 l0 84 31 -26 c17 -14 34 -26 38 -26 18 0 51 34 51 53 0 14 -85 107
-272 295 -150 150 -285 280 -300 288 -38 20 -107 18 -143 -5z"/>
</g>
</svg>
