<?xml version="1.0" standalone="no"?>
<!DOCTYPE svg PUBLIC "-//W3C//DTD SVG 20010904//EN"
 "http://www.w3.org/TR/2001/REC-SVG-20010904/DTD/svg10.dtd">
<svg version="1.0" xmlns="http://www.w3.org/2000/svg"
 width="128.000000pt" height="128.000000pt" viewBox="0 0 128.000000 128.000000"
 preserveAspectRatio="xMidYMid meet">

<g transform="translate(0.000000,128.000000) scale(0.100000,-0.100000)"
fill="#000000" stroke="none">
<path d="M215 1191 c-53 -24 -103 -75 -129 -131 -20 -43 -21 -61 -21 -420 0
-359 1 -377 21 -420 26 -58 76 -108 134 -134 43 -20 61 -21 415 -21 418 0 419
0 496 72 83 78 84 82 84 508 0 354 -1 372 -21 415 -26 56 -76 107 -129 131
-37 17 -73 19 -425 19 -352 0 -388 -2 -425 -19z m843 -30 c43 -22 83 -63 106
-108 14 -28 16 -82 16 -413 0 -355 -1 -383 -19 -418 -23 -44 -62 -82 -111
-108 -32 -18 -63 -19 -410 -19 -347 0 -378 1 -410 19 -49 26 -88 64 -111 108
-18 35 -19 63 -19 418 0 355 1 383 19 418 22 42 62 82 106 105 26 14 84 16
413 17 357 0 385 -1 420 -19z"/>
<path d="M827 1083 c-12 -11 -8 -78 5 -91 7 -7 40 -12 80 -12 l68 0 0 -345 0
-344 -77 -3 -78 -3 -3 -38 c-5 -62 8 -70 114 -65 107 5 138 20 153 75 14 51
14 715 1 765 -17 58 -39 68 -156 68 -55 0 -104 -3 -107 -7z m217 -39 c14 -13
16 -64 16 -402 0 -213 -4 -392 -8 -399 -13 -21 -61 -33 -128 -33 -62 0 -64 1
-64 25 0 24 2 25 69 25 46 0 72 5 80 14 8 9 11 116 9 372 l-3 359 -77 3 c-75
3 -78 4 -78 27 0 25 1 25 84 25 64 0 88 -4 100 -16z"/>
<path d="M602 867 c-18 -18 -32 -37 -32 -43 0 -5 27 -36 60 -69 l61 -60 -233
-5 -233 -5 -3 -38 c-6 -67 -5 -67 241 -67 l221 0 -57 -58 c-31 -32 -57 -62
-57 -68 0 -5 16 -25 35 -44 l35 -34 133 132 132 132 -130 130 c-71 71 -132
130 -135 130 -4 0 -20 -15 -38 -33z m153 -117 l110 -110 -112 -112 c-107 -107
-114 -112 -130 -95 -16 16 -14 21 50 85 37 37 67 73 67 80 0 9 -57 12 -240 12
l-240 0 0 25 0 25 235 0 c284 0 281 -2 180 100 -59 59 -67 71 -55 84 7 9 15
16 19 16 3 0 56 -50 116 -110z"/>
</g>
</svg>
